<?xml version="1.0" encoding="UTF-8"?>
<svg width="99px" height="99px" viewBox="0 0 99 99" version="1.1" xmlns="http://www.w3.org/2000/svg" xmlns:xlink="http://www.w3.org/1999/xlink">
    <!-- Generator: sketchtool 51.3 (57544) - http://www.bohemiancoding.com/sketch -->
    <title>BAE0DF0B-8368-40C9-AE10-CED7706389CA</title>
    <desc>Created with sketchtool.</desc>
    <defs>
        <linearGradient x1="3.13514645%" y1="95.7782919%" x2="60.6765528%" y2="39.9637222%" id="linearGradient-1">
            <stop stop-color="#7EACF5" offset="0%"></stop>
            <stop stop-color="#7C93EC" offset="100%"></stop>
        </linearGradient>
        <linearGradient x1="100%" y1="0%" x2="36.5864367%" y2="66.8533109%" id="linearGradient-2">
            <stop stop-color="#7EACF5" offset="0%"></stop>
            <stop stop-color="#7C93EC" offset="100%"></stop>
        </linearGradient>
    </defs>
    <g id="UI" stroke="none" stroke-width="1" fill="none" fill-rule="evenodd">
        <g id="Home_Bengali-Copy" transform="translate(-51.000000, -53.000000)" fill-rule="nonzero">
            <g id="OpenCRVS_Logo" transform="translate(51.000000, 53.000000)">
                <g id="Group-2-Copy">
                    <g id="Group" stroke-linejoin="round" transform="translate(23.265000, 31.432500)" fill="#FFFFFF" stroke="#FFFFFF" stroke-width="0.823760438">
                        <path d="M2.93057824,0.683044692 C3.79562844,0.233673184 4.74894907,0 5.82584832,0 C7.96199269,0 9.74505535,0.844818437 10.8219546,2.84002793 C11.3692312,3.82864525 11.6516966,5.03296089 11.6516966,6.435 C11.6516966,9.23907821 10.4335647,11.2882123 8.72111837,12.2049302 C7.85606817,12.6543017 6.90274755,12.87 5.82584832,12.87 C3.68970393,12.87 1.92429535,12.0251816 0.812087946,10.0299721 C0.264811286,9.04135475 0,7.83703911 0,6.435 C0,3.63092179 1.21813192,1.56381285 2.93057824,0.683044692 Z M8.31507441,3.23547485 C7.66187324,2.51648044 6.8321312,2.15698325 5.82584832,2.15698325 C4.81956542,2.15698325 3.98982338,2.51648044 3.31896813,3.23547485 C2.66576696,3.95446928 2.33033932,5.01498603 2.33033932,6.435 C2.33033932,7.85501397 2.66576696,8.91553072 3.31896813,9.63452515 C3.98982338,10.3535196 4.81956542,10.7130168 5.82584832,10.7130168 C6.8321312,10.7130168 7.66187324,10.3535196 8.31507441,9.63452515 C8.98592966,8.91553072 9.32135729,7.85501397 9.32135729,6.435 C9.32135729,5.01498603 8.98592966,3.95446928 8.31507441,3.23547485 Z M20.9377457,7.80108939 L18.5720983,7.80108939 L18.5720983,12.7262011 L16.2770672,12.7262011 L16.2770672,0.143798883 L20.9377457,0.143798883 C23.4622802,0.143798883 24.8039907,1.67166201 24.8039907,3.97244414 C24.8039907,6.27322627 23.4622802,7.80108939 20.9377457,7.80108939 Z M18.5720983,5.64410614 L20.8494755,5.64410614 C21.9263746,5.64410614 22.4736513,5.08688549 22.4736513,3.97244414 C22.4736513,2.85800279 21.9263746,2.30078213 20.8494755,2.30078213 L18.5720983,2.30078213 L18.5720983,5.64410614 Z M29.0233173,12.7262011 L29.0233173,0.143798883 L36.8440772,0.143798883 L36.8440772,2.30078213 L31.3183483,2.30078213 L31.3183483,5.3924581 L35.6082911,5.3924581 L35.6082911,7.54944135 L31.3183483,7.54944135 L31.3183483,10.5692179 L36.8440772,10.5692179 L36.8440772,12.7262011 L29.0233173,12.7262011 Z M48.6899688,8.44818437 L48.6899688,0.143798883 L50.985,0.143798883 L50.985,12.7262011 L48.5663902,12.7262011 L44.0292901,4.42181563 L44.0292901,12.7262011 L41.7342591,12.7262011 L41.7342591,0.143798883 L44.1528687,0.143798883 L48.6899688,8.44818437 Z" id="OPEN-Copy-2"></path>
                        <path d="M10.9556849,28.5606705 L8.89157032,29.0999162 C8.34466817,27.6439525 7.33907392,26.9069833 5.83950353,26.9069833 C4.83390926,26.9069833 3.98709304,27.2664804 3.31669687,28.0034498 C2.6639427,28.740419 2.32874462,29.8009357 2.32874462,31.185 C2.32874462,32.5690643 2.6639427,33.629581 3.31669687,34.3665502 C3.98709304,35.1035196 4.83390926,35.4630167 5.83950353,35.4630167 C7.33907392,35.4630167 8.34466817,34.7260475 8.89157032,33.2700838 L10.9556849,33.8093295 C10.3734987,36.2359357 8.52108823,37.62 5.83950353,37.62 C4.1987971,37.62 2.82272073,37.0448044 1.69363244,35.9123882 C0.564544148,34.7799722 0,33.1981844 0,31.185 C0,29.1718156 0.564544148,27.5900279 1.69363244,26.4576118 C2.82272073,25.3251956 4.1987971,24.75 5.83950353,24.75 C8.52108823,24.75 10.3734987,26.1340643 10.9556849,28.5606705 Z M24.6635225,28.470796 C24.6635225,30.142458 23.8343484,31.4006983 22.3524199,31.8500698 L25.7749689,37.4762011 L23.2168782,37.4762011 L19.9001813,32.0477933 L18.700525,32.0477933 L18.700525,37.4762011 L16.4070644,37.4762011 L16.4070644,24.8937989 L20.9057756,24.8937989 C23.3050882,24.8937989 24.6635225,26.3138129 24.6635225,28.470796 Z M18.700525,29.8908101 L20.9234176,29.8908101 C21.8937279,29.8908101 22.3700619,29.4234637 22.3700619,28.470796 C22.3700619,27.5181285 21.8937279,27.0507821 20.9234176,27.0507821 L18.700525,27.0507821 L18.700525,29.8908101 Z M39.9062146,24.8937989 L35.7603436,37.4762011 L33.431599,37.4762011 L29.2857279,24.8937989 L31.8261764,24.8937989 L34.5959712,34.2047766 L37.3657659,24.8937989 L39.9062146,24.8937989 Z M50.7031214,27.0328072 L48.850711,28.237123 C48.4096608,27.3563549 47.8274748,26.9069833 47.1394366,26.9069833 C46.4513983,26.9069833 45.9574224,27.3923044 45.9574224,28.0573743 C45.9574224,28.8482681 46.8042385,29.4414386 47.8098328,29.9267597 C49.2917611,30.5918295 51.2500236,31.5265224 51.2323816,33.7014804 C51.2323816,36.1460614 49.6798853,37.62 47.2805726,37.62 C46.2044102,37.62 45.2693841,37.2784776 44.4931358,36.6134078 C43.7168878,35.9303631 43.2229116,35.0855447 43.0288495,34.0969274 L44.88126,32.9105865 C45.3575941,34.6181983 46.1691262,35.4630167 47.3334986,35.4630167 C48.4096608,35.4630167 48.938921,34.9237709 48.938921,33.8273044 C48.938921,33.0903352 48.1450309,32.5151397 47.1041526,32.0657681 C45.6398662,31.4366481 43.7345298,30.4839804 43.7698138,28.1652234 C43.7698138,27.2125559 44.0873697,26.4036871 44.7224819,25.7386173 C45.3752362,25.0735475 46.1691262,24.75 47.1394366,24.75 C48.815427,24.75 49.9974414,25.5049441 50.7031214,27.0328072 Z" id="CRVS-Copy-2"></path>
                    </g>
                    <polygon id="Combined-Shape" fill="url(#linearGradient-1)" opacity="0.227176339" points="3.7125 95.2875 99 95.2875 95.2875 99 3.7125 99 0 99 0 7.425 3.7125 3.7125"></polygon>
                    <polygon id="Combined-Shape" fill="url(#linearGradient-2)" opacity="0.227176339" points="95.2875 3.7125 51.5625 3.7125 55.275 -2.63362665e-11 95.2875 -2.63241969e-11 99 -2.08575157e-11 99 44.75625 95.2875 48.46875"></polygon>
                </g>
            </g>
        </g>
    </g>
</svg>