<!--
This Source Code Form is subject to the terms of the Mozilla Public
License, v. 2.0. If a copy of the MPL was not distributed with this
file, You can obtain one at https://mozilla.org/MPL/2.0/.

OpenCRVS is also distributed under the terms of the Civil Registration
& Healthcare Disclaimer located at http://opencrvs.org/license.

Copyright (C) The OpenCRVS Authors located at https://github.com/opencrvs/opencrvs-core/blob/master/AUTHORS.
-->
 <svg
width="90"
height="90"
viewBox="0 0 90 90"
fill="none"
xmlns="http://www.w3.org/2000/svg"
>
<path
  d="M59.6405 12.8296H59.5766C59.2506 12.8266 58.935 12.9447 58.6911 13.1611C58.4472 13.3775 58.2923 13.6767 58.2565 14.0007C57.9651 17.3156 56.4424 20.4011 53.9885 22.6488C51.5346 24.8965 48.3277 26.1432 45 26.1432C41.6723 26.1432 38.4653 24.8965 36.0115 22.6488C33.5576 20.4011 32.0348 17.3156 31.7435 14.0007C31.7076 13.6767 31.5527 13.3775 31.3088 13.1611C31.0649 12.9447 30.7494 12.8266 30.4234 12.8296H30.3638C25.775 12.8296 21.3742 14.6525 18.1294 17.8973C14.8847 21.142 13.0618 25.5429 13.0618 30.1316V59.4041C13.0618 63.9929 14.8847 68.3937 18.1294 71.6384C21.3742 74.8832 25.775 76.7061 30.3638 76.7061H30.4234C30.7494 76.7091 31.0649 76.591 31.3088 76.3746C31.5527 76.1583 31.7076 75.8591 31.7435 75.535C32.0348 72.2201 33.5576 69.1346 36.0115 66.8869C38.4653 64.6393 41.6723 63.3925 45 63.3925C48.3277 63.3925 51.5346 64.6393 53.9885 66.8869C56.4424 69.1346 57.9651 72.2201 58.2565 75.535C58.2923 75.8591 58.4472 76.1583 58.6911 76.3746C58.935 76.591 59.2506 76.7091 59.5766 76.7061H59.6405C64.2285 76.705 68.6282 74.8816 71.8721 71.6369C75.1159 68.3923 76.9382 63.9921 76.9382 59.4041V30.1316C76.9382 25.5436 75.1159 21.1434 71.8721 17.8988C68.6282 14.6542 64.2285 12.8308 59.6405 12.8296ZM45 58.0755C42.368 58.0755 39.7951 57.295 37.6067 55.8327C35.4183 54.3705 33.7126 52.2921 32.7054 49.8605C31.6982 47.4288 31.4346 44.7531 31.9481 42.1717C32.4616 39.5903 33.729 37.2191 35.5901 35.358C37.4512 33.4969 39.8224 32.2294 42.4038 31.716C44.9852 31.2025 47.6609 31.466 50.0926 32.4733C52.5242 33.4805 54.6026 35.1861 56.0648 37.3746C57.5271 39.563 58.3076 42.1359 58.3076 44.7679C58.3076 48.2973 56.9055 51.6821 54.4099 54.1778C51.9142 56.6734 48.5294 58.0755 45 58.0755Z"
  fill="#1470FF"
/>
</svg>