<?xml version="1.0" encoding="UTF-8"?>
<svg width="60px" height="60px" viewBox="0 0 60 60" version="1.1" xmlns="http://www.w3.org/2000/svg" xmlns:xlink="http://www.w3.org/1999/xlink">
    <!-- Generator: sketchtool 51.3 (57544) - http://www.bohemiancoding.com/sketch -->
    <title>1A26510D-6F2D-467C-AA70-74A33256DABF</title>
    <desc>Created with sketchtool.</desc>
    <defs>
        <linearGradient x1="50%" y1="2.37754905%" x2="50%" y2="79.8914204%" id="linearGradient-1">
            <stop stop-color="#6291CD" offset="0%"></stop>
            <stop stop-color="#AACAF3" offset="100%"></stop>
        </linearGradient>
    </defs>
    <g id="Component-Library" stroke="none" stroke-width="1" fill="none" fill-rule="evenodd">
        <g id="Interface/Icons" transform="translate(-169.000000, -607.000000)">
            <g id="Icons/Done" transform="translate(169.000000, 607.000000)">
                <g id="Group-12">
                    <polygon id="Star-2-Copy" fill="url(#linearGradient-1)" points="30 60 28.1162844 59.9408019 26.240003 59.763441 24.3785606 59.4686175 22.5393034 59.0574948 20.7294902 58.5316955 18.9562634 57.8932946 17.2266213 57.1448116 15.5473898 56.2892004 13.9251962 55.3298378 12.3664424 54.2705098 10.8772803 53.1153973 9.46358682 51.8690588 8.13094118 50.5364132 6.88460272 49.1227197 5.72949017 47.6335576 4.67016223 46.0748038 3.7107996 44.4526102 2.85518843 42.7733787 2.10670542 41.0437366 1.46830451 39.2705098 0.942505166 37.4606966 0.531382478 35.6214394 0.236558961 33.759997 0.0591981472 31.8837156 0 30 0.0591981472 28.1162844 0.236558961 26.240003 0.531382478 24.3785606 0.942505166 22.5393034 1.46830451 20.7294902 2.10670542 18.9562634 2.85518843 17.2266213 3.7107996 15.5473898 4.67016223 13.9251962 5.72949017 12.3664424 6.88460272 10.8772803 8.13094118 9.46358682 9.46358682 8.13094118 10.8772803 6.88460272 12.3664424 5.72949017 13.9251962 4.67016223 15.5473898 3.7107996 17.2266213 2.85518843 18.9562634 2.10670542 20.7294902 1.46830451 22.5393034 0.942505166 24.3785606 0.531382478 26.240003 0.236558961 28.1162844 0.0591981472 30 0 31.8837156 0.0591981472 33.759997 0.236558961 35.6214394 0.531382478 37.4606966 0.942505166 39.2705098 1.46830451 41.0437366 2.10670542 42.7733787 2.85518843 44.4526102 3.7107996 46.0748038 4.67016223 47.6335576 5.72949017 49.1227197 6.88460272 50.5364132 8.13094118 51.8690588 9.46358682 53.1153973 10.8772803 54.2705098 12.3664424 55.3298378 13.9251962 56.2892004 15.5473898 57.1448116 17.2266213 57.8932946 18.9562634 58.5316955 20.7294902 59.0574948 22.5393034 59.4686175 24.3785606 59.763441 26.240003 59.9408019 28.1162844 60 30 59.9408019 31.8837156 59.763441 33.759997 59.4686175 35.6214394 59.0574948 37.4606966 58.5316955 39.2705098 57.8932946 41.0437366 57.1448116 42.7733787 56.2892004 44.4526102 55.3298378 46.0748038 54.2705098 47.6335576 53.1153973 49.1227197 51.8690588 50.5364132 50.5364132 51.8690588 49.1227197 53.1153973 47.6335576 54.2705098 46.0748038 55.3298378 44.4526102 56.2892004 42.7733787 57.1448116 41.0437366 57.8932946 39.2705098 58.5316955 37.4606966 59.0574948 35.6214394 59.4686175 33.759997 59.763441 31.8837156 59.9408019"></polygon>
                    <polyline id="Line" stroke="#FFFFFF" stroke-width="3" stroke-linecap="round" stroke-linejoin="round" fill-rule="nonzero" points="20.7592593 31.6172868 27.7685977 39.2407407 39.3333333 25.037037"></polyline>
                </g>
            </g>
        </g>
    </g>
</svg>